<?xml version="1.0" standalone="no"?>
<!DOCTYPE svg PUBLIC "-//W3C//DTD SVG 20010904//EN"
 "http://www.w3.org/TR/2001/REC-SVG-20010904/DTD/svg10.dtd">
<svg version="1.0" xmlns="http://www.w3.org/2000/svg"
 width="300.000000pt" height="261.000000pt" viewBox="0 0 300.000000 261.000000"
 preserveAspectRatio="xMidYMid meet">
<metadata>
Created by potrace 1.10, written by Peter Selinger 2001-2011
</metadata>
<g transform="translate(0.000000,261.000000) scale(0.100000,-0.100000)"
fill="#000000" stroke="none">
<path d="M18 2603 c-17 -4 -18 -75 -18 -1304 l0 -1299 1500 0 1500 0 0 1305 0
1305 -1482 -1 c-816 -1 -1491 -3 -1500 -6z m1565 -683 c12 -11 -30 -90 -46
-85 -6 3 -12 19 -13 35 -1 16 3 27 7 24 5 -3 9 -1 9 5 0 5 -9 9 -20 8 -23 -2
-23 -2 -9 -29 6 -11 8 -22 6 -25 -3 -3 -13 9 -22 27 -9 18 -15 33 -13 34 30
25 79 28 101 6z m-105 -69 c20 -10 40 -18 43 -17 3 0 13 -5 21 -12 13 -10 17
-10 21 2 7 17 66 50 75 42 3 -4 7 -27 8 -52 1 -45 1 -46 -25 -41 -14 3 -34 9
-45 13 -16 6 -15 2 8 -38 26 -45 34 -78 17 -78 -5 0 -14 7 -21 15 -16 20 -64
19 -84 -1 -17 -16 -36 -11 -36 10 0 18 60 109 67 102 3 -3 -6 -24 -21 -47 -27
-40 -31 -64 -6 -34 14 17 56 20 65 5 3 -5 10 -10 15 -10 5 0 -5 23 -22 50 -17
28 -32 50 -33 50 -1 0 -23 -12 -49 -26 -25 -14 -47 -22 -47 -17 -3 24 -4 89
-1 96 5 10 8 9 50 -12z m-245 -187 c46 -38 88 -54 149 -54 43 0 56 4 66 20 14
22 32 18 32 -7 0 -38 -33 -83 -77 -104 -55 -27 -132 -22 -239 14 -39 14 -89
28 -111 32 -52 8 -118 -9 -138 -38 -22 -31 -19 -101 7 -150 12 -23 22 -44 23
-47 1 -12 17 -30 26 -30 6 0 1 15 -10 34 -22 35 -28 81 -11 91 6 3 10 -3 10
-15 0 -11 9 -39 21 -62 16 -31 19 -48 12 -70 l-8 -28 -52 66 c-29 37 -58 82
-65 100 -11 32 -28 46 -28 23 0 -6 -10 -9 -22 -7 -17 2 -23 10 -23 28 0 21 5
25 30 25 20 0 31 5 33 17 2 12 -1 16 -11 13 -20 -8 -44 22 -29 37 16 16 52 20
52 7 0 -8 5 -7 15 1 14 12 14 15 0 30 -17 19 -20 34 -5 25 6 -4 7 1 3 11 -5
14 -3 16 11 11 10 -4 15 -3 11 3 -3 6 -2 10 4 10 6 0 15 -9 21 -20 9 -16 8
-22 -5 -26 -8 -3 -15 -14 -15 -24 0 -11 -4 -22 -10 -25 -5 -3 -10 -10 -10 -15
0 -5 11 2 25 16 14 14 23 29 20 34 -3 5 6 12 20 16 24 6 25 8 10 24 -20 23 -9
52 19 48 16 -2 21 -10 21 -30 -1 -20 4 -28 16 -28 18 0 42 -23 33 -32 -2 -3 7
-5 22 -5 l28 0 -26 13 c-45 23 -47 87 -4 71 19 -7 22 -47 4 -48 -7 0 -4 -4 7
-9 29 -13 33 -12 31 7 0 10 7 19 18 21 15 3 18 -1 14 -22 -4 -19 0 -30 12 -36
14 -7 17 -6 16 7 0 10 7 19 18 21 15 3 18 -1 14 -21 -4 -19 0 -27 14 -30 13
-4 18 0 18 14 0 21 8 23 30 9 12 -8 12 -11 -2 -27 -16 -17 -15 -18 8 -18 16 0
24 6 24 18 0 9 6 17 14 17 23 0 28 -17 10 -34 -8 -9 -11 -16 -5 -16 5 0 13 5
16 11 4 6 14 8 22 5 11 -5 13 -2 9 10 -8 21 1 34 19 28 8 -4 12 -10 9 -15 -9
-15 13 -10 26 6 10 12 7 15 -14 21 -13 3 -29 3 -35 0 -19 -12 -108 16 -144 45
-36 30 -59 80 -48 109 3 9 8 3 13 -17 4 -17 23 -44 41 -59z m653 23 c-15 -36
-65 -80 -104 -92 -36 -11 -141 -12 -145 -1 -2 5 -9 7 -16 5 -7 -3 1 -14 20
-28 21 -16 34 -20 37 -13 2 7 10 12 19 12 9 0 12 -6 9 -18 -4 -13 -1 -18 14
-18 12 0 19 6 17 16 -1 9 6 15 18 15 13 0 19 -6 17 -17 -2 -12 3 -15 17 -11
13 3 17 11 14 24 -4 14 0 19 17 19 16 0 20 -4 16 -15 -6 -16 3 -19 29 -9 12 5
13 9 4 14 -14 9 -5 40 12 40 6 0 13 -9 16 -19 7 -28 32 -14 30 16 -2 31 22 43
30 15 3 -14 11 -18 24 -15 15 4 17 8 8 19 -16 19 -4 44 21 44 26 0 26 -29 -1
-64 -14 -18 -16 -26 -7 -26 18 0 48 20 30 20 -7 0 -10 5 -7 10 3 6 15 10 25
10 14 0 18 7 17 27 -2 22 3 29 21 31 27 4 40 -23 24 -48 -9 -15 -7 -19 10 -23
11 -3 19 -12 17 -19 -3 -7 10 -28 27 -46 26 -28 32 -31 38 -17 3 9 2 14 -3 11
-14 -9 -61 59 -61 88 0 19 20 26 43 14 21 -11 22 -31 2 -48 -21 -17 3 -43 24
-26 12 9 13 8 6 -4 -8 -13 -7 -13 9 -1 15 13 19 13 27 0 12 -19 11 -25 -6 -39
-8 -6 -20 -8 -26 -4 -9 5 -10 2 -6 -10 4 -10 7 -22 7 -27 0 -5 5 -9 11 -9 5 0
7 5 4 10 -4 6 3 9 17 7 14 -3 24 -12 26 -25 4 -25 -23 -41 -41 -23 -17 17 -24
13 -30 -16 -7 -31 -95 -148 -104 -139 -4 3 1 14 10 23 8 10 16 21 17 25 0 4
12 31 25 60 30 64 31 83 5 125 -36 59 -105 64 -245 16 -153 -52 -272 -37 -308
40 -18 36 -21 59 -11 70 10 9 34 -4 34 -19 0 -10 15 -14 55 -14 92 0 194 65
195 124 1 19 2 19 11 4 7 -12 5 -27 -5 -51z m-325 -7 c24 -14 27 -63 2 -58 -9
2 -18 9 -21 17 -3 8 0 11 7 7 6 -4 11 -2 11 4 0 20 -29 22 -47 4 -17 -17 -17
-17 0 -11 11 4 17 1 17 -9 0 -22 -34 -13 -38 10 -3 11 4 26 14 33 22 16 29 16
55 3z m-47 -76 c23 -9 20 -34 -4 -34 -13 0 -20 7 -20 20 0 22 1 23 24 14z m66
-14 c0 -21 -24 -28 -35 -10 -8 14 3 30 21 30 8 0 14 -9 14 -20z m15 -69 c0
-21 -6 -38 -17 -45 -22 -14 -34 -1 -18 20 12 13 11 17 -1 25 -12 7 -46 4 -58
-7 -2 -2 2 -10 9 -19 16 -20 4 -33 -18 -19 -18 12 -27 46 -18 70 4 11 20 14
63 12 l58 -3 0 -34z m-16 -69 c20 19 23 20 17 5 -3 -10 -6 -33 -6 -51 0 -18
-7 -41 -15 -52 -14 -18 -14 -17 -5 11 10 25 8 31 -12 46 -20 15 -24 16 -31 3
-9 -16 0 -54 13 -54 5 0 11 8 14 18 3 9 2 -3 -1 -28 -3 -25 -7 -47 -8 -49 -10
-10 -24 14 -29 54 -4 25 -11 43 -16 40 -6 -3 -5 -17 0 -33 10 -25 9 -26 -5 -8
-8 11 -15 34 -15 52 0 18 -3 41 -7 51 -5 15 -2 14 19 -5 l26 -24 7 34 8 33 11
-33 11 -32 24 22z m551 -62 c0 -16 -7 -36 -16 -44 -8 -9 -16 -31 -17 -51 -2
-19 -7 -39 -13 -45 -17 -17 -9 71 9 107 10 18 17 41 17 53 0 12 5 18 10 15 6
-3 10 -19 10 -35z m-880 5 c0 -8 -9 -22 -19 -32 -14 -13 -17 -23 -11 -33 15
-24 11 -36 -5 -14 -20 26 -20 78 0 70 10 -4 15 1 15 15 0 11 5 17 10 14 6 -3
10 -12 10 -20z m606 -8 c20 7 18 -46 -2 -72 -16 -19 -16 -19 -10 5 l7 25 -15
-25 c-25 -40 -20 -54 10 -31 37 29 72 27 86 -4 10 -23 8 -29 -15 -52 -22 -23
-29 -25 -49 -15 -18 8 -19 11 -5 11 9 1 17 8 17 16 0 22 -47 19 -52 -3 -19
-72 101 -129 182 -87 51 27 66 85 21 85 -27 0 -35 -17 -14 -30 16 -9 15 -10
-7 -8 -41 5 -53 45 -32 108 l18 52 32 -36 c31 -35 34 -42 36 -76 2 -24 32 -23
43 2 6 13 30 46 55 73 24 28 47 58 51 68 7 20 43 23 50 5 9 -25 -13 -50 -39
-44 -13 4 -24 2 -24 -3 0 -5 -12 -24 -27 -42 l-27 -32 25 8 c18 5 11 -5 -28
-40 -61 -53 -84 -108 -65 -150 14 -30 15 -30 -90 -6 -257 60 -692 58 -932 -4
-73 -19 -79 -19 -65 3 23 37 2 93 -57 150 -54 52 -60 67 -14 35 19 -13 15 -6
-12 27 -21 24 -38 48 -38 52 0 5 -8 7 -17 4 -25 -8 -46 8 -41 30 5 29 45 30
54 2 4 -13 26 -45 50 -73 24 -27 44 -55 44 -62 0 -7 10 -17 21 -24 14 -7 19
-7 15 0 -9 13 19 68 52 104 l27 28 17 -52 c21 -62 9 -102 -32 -107 -22 -2 -23
-1 -7 8 21 13 13 30 -14 30 -45 0 -30 -58 21 -85 40 -21 99 -19 138 5 34 21
55 60 46 85 -8 20 -54 20 -54 0 0 -8 8 -15 18 -15 16 -1 16 -1 -1 -11 -14 -8
-24 -6 -43 6 -32 21 -38 38 -24 64 14 27 50 27 83 1 28 -22 28 -22 11 40 -7
23 -6 24 11 10 11 -9 16 -10 11 -2 -4 6 -2 12 4 12 7 0 9 -12 4 -35 -4 -24 -3
-35 6 -35 7 0 10 7 6 17 -4 10 -4 14 0 11 4 -4 18 2 32 12 13 11 34 20 46 20
17 0 21 -7 24 -37 3 -41 -20 -73 -51 -73 -21 0 -21 0 -1 15 16 13 17 16 4 25
-35 23 -61 -16 -36 -54 20 -32 53 -46 104 -46 49 0 82 18 104 56 26 45 5 84
-37 68 -23 -9 -18 -34 8 -34 16 0 18 -3 8 -9 -31 -20 -89 27 -75 62 3 9 -1 26
-10 39 -9 12 -16 26 -16 29 0 16 88 -27 123 -60 l37 -35 28 33 c25 31 122 79
122 61 0 -4 -9 -18 -20 -32 -14 -18 -16 -28 -8 -36 8 -8 6 -18 -6 -36 -12 -20
-24 -26 -49 -25 -23 1 -26 3 -9 6 25 5 30 28 7 37 -40 15 -62 -21 -40 -64 40
-77 174 -81 215 -7 14 26 14 29 -3 42 -21 15 -47 10 -47 -10 0 -8 8 -16 18
-18 14 -4 13 -5 -4 -6 -31 -2 -54 30 -52 72 1 31 5 37 22 37 22 0 66 -26 66
-39 0 -4 -16 -5 -35 -3 -19 2 -35 0 -35 -4 0 -5 23 -9 50 -10 44 0 50 2 50 19
0 11 7 28 16 38 18 20 11 41 -12 32 -11 -4 -12 -9 -4 -18 7 -8 7 -15 1 -19 -5
-3 -12 0 -15 6 -3 7 -4 0 -1 -17 4 -22 3 -26 -5 -15 -20 30 -6 101 18 86 5 -3
13 2 18 12 7 15 8 14 11 -5 3 -14 9 -20 19 -16z m-572 -3 c3 -9 6 -28 5 -42 0
-15 -3 -20 -6 -12 -3 8 -12 20 -19 26 -8 6 -12 19 -8 28 8 20 20 21 28 0z
m541 -285 c44 -5 117 -17 162 -26 73 -14 80 -17 67 -31 -10 -9 -13 -24 -9 -39
5 -20 3 -23 -17 -18 -166 37 -310 48 -565 42 -203 -4 -347 -19 -426 -43 -15
-5 -17 -1 -12 19 4 15 1 30 -9 39 -13 14 -6 17 67 32 78 15 212 32 322 40 72
5 326 -4 420 -15z m-34 -99 c57 -6 153 -20 213 -30 60 -11 123 -20 140 -21 31
0 31 0 6 -11 -17 -7 -88 -6 -230 2 -269 17 -496 17 -760 1 -152 -9 -222 -10
-240 -3 -25 11 -25 11 6 11 18 1 69 8 115 17 218 42 531 56 750 34z m473 -371
c46 -103 70 -148 87 -156 21 -11 15 -13 -46 -12 -52 0 -64 3 -47 9 26 11 27
19 8 65 -15 35 -15 35 -80 35 l-66 0 -15 -36 c-20 -48 -19 -53 8 -64 17 -7 10
-9 -33 -9 -49 -1 -53 0 -34 13 11 8 48 80 84 160 35 80 65 144 67 142 2 -2 33
-68 67 -147z m-1724 128 c-25 -12 -25 -14 -25 -142 0 -128 0 -130 25 -142 22
-11 18 -13 -45 -13 -63 0 -67 2 -45 13 25 12 25 15 28 144 l3 131 -28 10 c-24
9 -17 11 42 11 63 1 67 -1 45 -12z m189 -114 c31 -67 58 -122 61 -122 3 -1 30
56 60 124 l55 125 50 -1 c37 -1 44 -3 25 -8 -25 -7 -25 -7 -28 -143 l-3 -136
28 -10 c23 -9 15 -10 -47 -10 -62 0 -70 1 -47 10 l27 10 0 126 -1 127 -61
-137 c-33 -76 -64 -138 -67 -138 -3 0 -33 59 -66 131 -33 72 -64 133 -69 136
-5 4 -6 -1 -3 -11 4 -10 7 -66 7 -125 0 -102 1 -109 23 -119 18 -9 13 -11 -38
-11 -55 -1 -58 0 -35 12 25 12 25 14 25 147 l0 134 -25 7 c-17 5 -10 7 24 6
l50 -2 55 -122z m490 112 c37 -19 58 -67 43 -100 -18 -39 -70 -66 -119 -63
l-43 3 0 -57 c0 -52 2 -57 28 -66 22 -9 14 -10 -48 -10 -62 0 -70 1 -47 10
l28 10 -3 136 c-3 136 -3 136 -28 143 -14 4 14 7 68 8 63 1 102 -4 121 -14z
m305 -16 c10 -53 6 -66 -10 -34 -24 45 -42 55 -98 55 l-51 0 0 -65 0 -65 37 0
c30 0 40 5 52 28 15 26 15 25 15 -43 0 -69 0 -70 -14 -37 -12 28 -19 32 -52
32 l-38 0 0 -65 0 -65 62 0 c64 0 86 11 98 50 12 39 22 19 12 -25 l-10 -45
-126 1 c-97 0 -120 3 -98 11 l28 10 -3 136 -3 137 -30 6 c-16 4 27 7 96 8
l127 1 6 -31z m257 16 c61 -32 57 -104 -7 -136 l-32 -15 45 -60 c24 -32 56
-64 71 -71 27 -12 27 -12 -13 -13 -39 0 -43 3 -93 70 -34 46 -59 70 -72 70
-18 0 -20 -7 -20 -59 0 -56 2 -60 28 -69 22 -9 14 -10 -48 -10 -62 0 -70 1
-47 10 l28 10 -3 136 c-3 136 -3 136 -28 143 -14 4 14 7 68 8 66 1 102 -3 123
-14z m222 8 c-30 -6 -34 -27 -31 -163 3 -111 4 -115 28 -127 22 -11 18 -13
-45 -13 -63 0 -67 2 -45 13 24 12 25 16 28 136 3 129 -2 146 -41 154 -12 2 12
4 53 4 41 0 65 -2 53 -4z m497 0 c-14 -3 -28 -10 -32 -17 -4 -6 -8 -68 -8
-138 l0 -128 66 0 65 0 17 40 c22 52 31 51 21 -2 -4 -24 -8 -46 -9 -50 0 -5
-55 -8 -122 -8 -106 0 -119 2 -98 13 24 12 25 16 28 136 3 129 -2 146 -41 154
-12 2 14 4 58 4 44 0 69 -2 55 -4z m-1320 -472 l0 -25 -21 23 c-24 26 -62 25
-67 -2 -3 -12 9 -23 43 -37 43 -18 46 -22 43 -51 -4 -42 -28 -57 -67 -42 -22
8 -31 8 -35 -1 -2 -6 -5 4 -5 23 l-1 34 21 -27 c22 -29 50 -34 68 -12 17 21 3
44 -35 56 -29 10 -54 35 -54 54 0 19 36 36 71 34 34 -3 39 -6 39 -27z m102 20
c-21 -13 -12 -131 11 -145 12 -8 22 -8 35 0 22 14 31 132 10 145 -8 6 0 8 22
8 19 0 29 -3 23 -6 -9 -3 -13 -26 -13 -64 0 -66 -21 -99 -64 -99 -41 0 -56 25
-56 90 0 46 -4 61 -17 69 -14 8 -10 10 22 11 25 0 35 -3 27 -9z m200 -3 c-7
-7 -12 -39 -12 -73 0 -34 5 -66 12 -73 9 -9 4 -12 -22 -12 -26 0 -31 3 -22 12
7 7 12 39 12 75 0 48 -4 64 -17 72 -15 8 -10 10 22 11 30 0 36 -3 27 -12z
m183 -9 c9 -28 -1 -35 -15 -10 -6 12 -17 21 -25 21 -20 0 -22 -146 -2 -153 6
-3 -6 -5 -28 -5 -22 0 -34 2 -27 5 8 3 12 29 12 79 0 61 -3 74 -16 74 -9 0
-18 -9 -21 -20 -3 -11 -10 -20 -15 -20 -6 0 -7 7 -4 16 3 9 6 20 6 25 0 5 29
9 64 9 57 0 65 -3 71 -21z m158 -6 l5 -27 -17 23 c-27 35 -65 26 -69 -16 -3
-27 0 -33 17 -33 11 0 25 8 30 18 8 13 10 9 10 -23 0 -32 -2 -36 -10 -22 -5 9
-19 17 -29 17 -15 0 -20 -7 -20 -29 0 -27 14 -41 41 -41 6 0 20 11 33 25 l22
24 -4 -29 c-4 -30 -5 -30 -71 -29 -36 0 -60 3 -53 6 8 3 12 29 12 78 0 49 -4
75 -12 78 -7 3 15 6 48 6 59 1 62 0 67 -26z m167 -2 l0 -25 -20 22 c-22 23
-29 26 -54 16 -29 -11 -17 -34 28 -53 50 -22 63 -45 41 -77 -16 -25 -49 -31
-75 -14 -9 6 -17 5 -22 -3 -4 -7 -8 3 -8 23 l1 35 20 -28 c22 -29 47 -35 67
-15 22 22 13 38 -32 57 -50 22 -60 40 -40 70 12 17 24 21 55 19 34 -3 39 -6
39 -27z"/>
<path d="M1549 1884 c-5 -15 -8 -29 -5 -31 2 -2 8 10 14 26 13 38 5 41 -9 5z"/>
<path d="M1457 1839 c7 -7 15 -10 18 -7 3 3 -2 9 -12 12 -14 6 -15 5 -6 -5z"/>
<path d="M1453 1802 c0 -7 7 -10 14 -7 8 3 19 5 24 5 5 0 9 3 9 8 0 4 -10 7
-23 7 -13 0 -24 -6 -24 -13z"/>
<path d="M1570 1814 c0 -7 52 -25 57 -20 2 2 -10 8 -26 14 -17 6 -31 9 -31 6z"/>
<path d="M975 1596 c-18 -13 -18 -14 8 -9 15 3 24 9 21 14 -7 12 -7 12 -29 -5z"/>
<path d="M1441 1601 c-8 -6 -9 -11 -3 -15 6 -3 14 -1 17 5 9 14 2 20 -14 10z"/>
<path d="M860 1536 c0 -2 7 -9 15 -16 13 -11 14 -10 9 4 -5 14 -24 23 -24 12z"/>
<path d="M2080 1595 c7 -9 15 -13 17 -11 7 7 -7 26 -19 26 -6 0 -6 -6 2 -15z"/>
<path d="M1948 1573 c7 -3 16 -2 19 1 4 3 -2 6 -13 5 -11 0 -14 -3 -6 -6z"/>
<path d="M1885 1550 c-3 -6 1 -7 9 -4 18 7 21 14 7 14 -6 0 -13 -4 -16 -10z"/>
<path d="M1485 1539 c-4 -6 -4 -13 -1 -16 3 -4 6 -1 6 5 0 6 8 13 18 15 15 4
15 5 0 6 -9 0 -20 -4 -23 -10z"/>
<path d="M1560 1543 c8 -3 19 -11 23 -17 6 -7 7 -6 4 4 -2 8 -12 16 -23 17
-13 2 -15 1 -4 -4z"/>
<path d="M1427 1316 c-3 -8 10 -11 39 -11 48 0 46 13 -3 19 -18 2 -34 -2 -36
-8z"/>
<path d="M1576 1312 c-3 -5 6 -7 19 -4 14 2 33 -2 42 -9 14 -12 16 -12 11 1
-5 17 -63 26 -72 12z"/>
<path d="M2002 1316 c4 -5 3 -15 -3 -22 -7 -9 -6 -12 5 -10 25 3 28 12 9 27
-10 7 -15 9 -11 5z"/>
<path d="M1046 1294 c-4 -10 -1 -14 6 -12 15 5 23 28 10 28 -5 0 -13 -7 -16
-16z"/>
<path d="M1330 1303 c-14 -3 -29 -8 -33 -13 -5 -4 4 -5 18 -2 17 3 30 0 36 -9
6 -10 9 -8 9 9 0 12 -1 21 -2 21 -2 -1 -14 -4 -28 -6z"/>
<path d="M1160 1272 c0 -5 14 -7 30 -4 17 2 30 6 30 8 0 2 -13 4 -30 4 -16 0
-30 -4 -30 -8z"/>
<path d="M1870 1273 c14 -3 28 -10 32 -17 5 -7 8 -5 8 7 0 13 -8 17 -32 16
-28 -2 -29 -2 -8 -6z"/>
<path d="M1009 1253 c-13 -15 -12 -15 10 -4 12 7 32 11 42 8 10 -3 19 -1 19 4
0 16 -57 10 -71 -8z"/>
<path d="M1986 1262 c-2 -4 13 -8 34 -7 21 0 36 3 33 8 -6 10 -61 9 -67 -1z"/>
<path d="M1515 1200 c-9 -16 -20 -30 -26 -30 -6 0 -8 -4 -5 -9 4 -7 102 -9
113 -2 1 0 -9 12 -22 26 -14 13 -25 29 -25 35 0 20 -20 9 -35 -20z"/>
<path d="M1242 1170 l-23 -30 24 0 c14 0 39 3 56 6 25 5 29 9 20 20 -6 8 -15
12 -19 9 -4 -3 -10 2 -14 10 -8 22 -20 18 -44 -15z"/>
<path d="M1784 1185 c-4 -8 -10 -12 -15 -9 -5 3 -9 -2 -9 -11 0 -10 -5 -13
-12 -9 -7 4 -10 4 -6 -1 4 -4 31 -9 60 -11 29 -2 48 0 42 4 -6 4 -16 17 -23
30 -14 25 -29 29 -37 7z"/>
<path d="M1022 1125 c2 -16 8 -25 17 -23 23 5 24 26 2 38 -19 9 -21 8 -19 -15z"/>
<path d="M2020 1135 c-7 -8 -20 -15 -29 -16 -9 -1 -5 -4 9 -9 42 -13 50 -11
50 15 0 28 -12 32 -30 10z"/>
<path d="M1446 1091 c-3 -4 1 -16 8 -26 15 -21 41 -15 48 12 4 14 -1 18 -23
20 -16 1 -31 -2 -33 -6z"/>
<path d="M1564 1077 c13 -22 50 -18 54 5 3 13 -4 17 -31 15 -30 -2 -33 -4 -23
-20z"/>
<path d="M1317 1083 c-10 -9 13 -33 32 -33 10 0 17 8 17 20 0 14 -7 20 -21 20
-12 0 -25 -3 -28 -7z"/>
<path d="M1385 1080 c-4 -7 -3 -16 3 -22 14 -14 45 -2 40 15 -6 16 -34 21 -43
7z"/>
<path d="M1522 1076 c1 -10 8 -17 13 -17 15 1 12 24 -3 29 -9 3 -13 -2 -10
-12z"/>
<path d="M1645 1080 c-4 -7 -3 -16 3 -22 14 -14 45 -2 40 15 -6 16 -34 21 -43
7z"/>
<path d="M1704 1074 c3 -9 6 -18 6 -20 0 -12 39 -2 44 12 9 23 8 24 -25 24
-24 0 -30 -3 -25 -16z"/>
<path d="M1210 1070 c-11 -7 -11 -10 -2 -10 7 0 10 -4 7 -10 -7 -11 28 -14 38
-3 7 6 -11 33 -22 33 -3 0 -13 -5 -21 -10z"/>
<path d="M1275 1070 c-4 -6 -3 -16 3 -22 6 -6 12 -6 17 2 4 6 3 16 -3 22 -6 6
-12 6 -17 -2z"/>
<path d="M1820 1060 c0 -23 15 -26 35 -6 16 16 10 26 -17 26 -11 0 -18 -7 -18
-20z"/>
<path d="M1151 1056 c-13 -15 -5 -26 20 -26 26 0 32 17 10 29 -14 8 -22 7 -30
-3z"/>
<path d="M1772 1058 c6 -18 28 -21 28 -4 0 9 -7 16 -16 16 -9 0 -14 -5 -12
-12z"/>
<path d="M1885 1056 c-18 -13 -18 -14 2 -24 16 -9 24 -8 32 2 18 21 -10 40
-34 22z"/>
<path d="M1093 1053 c-15 -5 -5 -33 12 -33 7 0 15 8 17 18 5 18 -4 23 -29 15z"/>
<path d="M1947 1039 c-4 -15 -1 -19 11 -17 21 4 29 38 9 38 -8 0 -17 -9 -20
-21z"/>
<path d="M1047 1034 c-8 -8 1 -24 14 -24 5 0 9 7 9 15 0 15 -12 20 -23 9z"/>
<path d="M2000 1024 c0 -17 22 -14 28 4 2 7 -3 12 -12 12 -9 0 -16 -7 -16 -16z"/>
<path d="M1310 979 c-22 -6 -20 -7 12 -8 20 -1 39 3 43 8 6 11 -17 11 -55 0z"/>
<path d="M1463 983 c26 -2 67 -2 90 0 23 2 2 3 -48 3 -49 0 -68 -1 -42 -3z"/>
<path d="M1602 985 c3 -3 45 -8 94 -9 49 -2 78 -1 64 3 -31 9 -167 14 -158 6z"/>
<path d="M2156 654 c-15 -37 -25 -68 -23 -71 3 -2 29 -3 59 -1 l54 3 -31 68
-31 68 -28 -67z"/>
<path d="M1100 685 l0 -75 40 0 c51 0 80 27 80 74 0 43 -38 76 -86 76 l-34 0
0 -75z"/>
<path d="M1660 690 l0 -70 38 0 c52 0 82 23 82 63 0 18 -4 37 -8 43 -12 19
-49 34 -81 34 l-31 0 0 -70z"/>
</g>
</svg>
