<?xml version="1.0" standalone="no"?>
<!DOCTYPE svg PUBLIC "-//W3C//DTD SVG 20010904//EN"
 "http://www.w3.org/TR/2001/REC-SVG-20010904/DTD/svg10.dtd">
<svg version="1.0" xmlns="http://www.w3.org/2000/svg"
 width="300.000000pt" height="261.000000pt" viewBox="0 0 300.000000 261.000000"
 preserveAspectRatio="xMidYMid meet">
<metadata>
Created by potrace 1.10, written by Peter Selinger 2001-2011
</metadata>
<g transform="translate(0.000000,261.000000) scale(0.100000,-0.100000)"
fill="#000000" stroke="none">
<path d="M8 2603 c7 -3 16 -2 19 1 4 3 -2 6 -13 5 -11 0 -14 -3 -6 -6z"/>
<path d="M1505 1928 c-11 -6 -21 -12 -23 -14 -2 -1 4 -16 13 -34 9 -18 19 -30
22 -27 2 3 0 14 -6 25 -14 27 -14 27 9 29 11 1 20 -3 20 -8 0 -6 -4 -8 -9 -5
-4 3 -8 -8 -7 -24 1 -16 7 -32 13 -35 16 -5 58 74 46 85 -15 16 -58 20 -78 8z
m53 -49 c-6 -16 -12 -28 -14 -26 -5 5 13 57 20 57 3 0 0 -14 -6 -31z"/>
<path d="M1428 1863 c-3 -7 -2 -72 1 -96 0 -5 22 3 47 17 26 14 48 26 49 26 1
0 16 -22 33 -50 17 -27 27 -50 22 -50 -5 0 -12 5 -15 10 -9 15 -51 12 -65 -5
-25 -30 -21 -6 6 34 15 23 24 44 21 47 -7 7 -67 -84 -67 -102 0 -21 19 -26 36
-10 20 20 68 21 84 1 7 -8 16 -15 21 -15 17 0 9 33 -17 78 -23 40 -24 44 -8
38 11 -4 31 -10 45 -13 26 -5 26 -4 25 41 -1 25 -5 48 -8 52 -9 8 -68 -25 -75
-42 -4 -12 -8 -12 -21 -2 -8 7 -18 12 -21 12 -3 -1 -23 7 -43 17 -42 21 -45
22 -50 12z m47 -31 c-3 -3 -11 0 -18 7 -9 10 -8 11 6 5 10 -3 15 -9 12 -12z
m25 -24 c0 -5 -4 -8 -9 -8 -5 0 -16 -2 -24 -5 -7 -3 -14 0 -14 7 0 7 11 13 24
13 13 0 23 -3 23 -7z m127 -14 c-5 -5 -57 13 -57 20 0 3 14 0 31 -6 16 -6 28
-12 26 -14z"/>
<path d="M1179 1740 c-11 -29 12 -79 48 -109 36 -29 125 -57 144 -45 6 3 22 3
35 0 21 -6 24 -9 14 -21 -13 -16 -35 -21 -26 -6 3 5 -1 11 -9 15 -18 6 -27 -7
-19 -28 4 -12 2 -15 -9 -10 -8 3 -18 1 -22 -5 -3 -6 -11 -11 -16 -11 -6 0 -3
7 5 16 18 17 13 34 -10 34 -8 0 -14 -8 -14 -17 0 -12 -8 -18 -24 -18 -23 0
-24 1 -8 18 14 16 14 19 2 27 -22 14 -30 12 -30 -9 0 -14 -5 -18 -18 -14 -14
3 -18 11 -14 30 4 20 1 24 -14 21 -11 -2 -18 -11 -18 -21 1 -13 -2 -14 -16 -7
-12 6 -16 17 -12 36 4 21 1 25 -14 22 -11 -2 -18 -11 -18 -21 2 -19 -2 -20
-31 -7 -11 5 -14 9 -7 9 18 1 15 41 -4 48 -43 16 -41 -48 4 -71 l26 -13 -28 0
c-15 0 -24 2 -22 5 9 9 -15 32 -33 32 -12 0 -17 8 -16 28 0 20 -5 28 -21 30
-28 4 -39 -25 -19 -48 15 -16 14 -18 -10 -24 -14 -4 -23 -11 -20 -16 3 -5 -6
-20 -20 -34 -14 -14 -25 -21 -25 -16 0 5 5 12 10 15 6 3 10 14 10 25 0 10 7
21 15 24 13 4 14 10 5 26 -6 11 -15 20 -21 20 -6 0 -7 -4 -4 -10 4 -6 -1 -7
-11 -3 -14 5 -16 3 -11 -11 4 -10 3 -15 -3 -11 -15 9 -12 -6 5 -25 14 -15 14
-18 0 -30 -10 -8 -15 -9 -15 -1 0 13 -36 9 -52 -7 -15 -15 9 -45 29 -37 10 3
13 -1 11 -13 -2 -12 -13 -17 -33 -17 -25 0 -30 -4 -30 -25 0 -18 6 -26 23 -28
12 -2 22 1 22 7 0 23 17 9 28 -23 7 -18 36 -63 65 -100 l52 -66 8 28 c7 22 4
39 -12 70 -12 23 -21 51 -21 62 0 12 -4 18 -10 15 -17 -10 -11 -56 11 -91 11
-19 16 -34 10 -34 -9 0 -25 18 -26 30 -1 3 -11 24 -23 47 -26 49 -29 119 -7
150 20 29 86 46 138 38 22 -4 72 -18 111 -32 107 -36 184 -41 239 -14 44 21
77 66 77 104 0 25 -18 29 -32 7 -10 -16 -23 -20 -66 -20 -88 0 -174 51 -190
113 -5 20 -10 26 -13 17z m-175 -139 c3 -5 -6 -11 -21 -14 -26 -5 -26 -4 -8 9
22 17 22 17 29 5z m451 -10 c-3 -6 -11 -8 -17 -5 -6 4 -5 9 3 15 16 10 23 4
14 -10z m-571 -67 c5 -14 4 -15 -9 -4 -17 14 -19 20 -6 20 5 0 12 -7 15 -16z"/>
<path d="M1880 1734 c-1 -59 -103 -124 -195 -124 -40 0 -55 4 -55 14 0 15 -24
28 -34 19 -10 -11 -7 -34 11 -70 36 -77 155 -92 308 -40 140 48 209 43 245
-16 26 -42 25 -61 -5 -125 -13 -29 -25 -56 -25 -60 -1 -4 -9 -15 -17 -25 -9
-9 -14 -20 -10 -23 9 -9 97 108 104 139 6 29 13 33 30 16 18 -18 45 -2 41 23
-2 13 -12 22 -26 25 -14 2 -21 -1 -17 -7 3 -5 1 -10 -4 -10 -6 0 -11 4 -11 9
0 5 -3 17 -7 27 -4 12 -3 15 6 10 6 -4 18 -2 26 4 17 14 18 20 6 39 -8 13 -12
13 -27 0 -16 -12 -17 -12 -9 1 7 12 6 13 -6 4 -21 -17 -45 9 -24 26 20 17 19
37 -2 48 -23 12 -43 5 -43 -14 0 -29 47 -97 61 -88 5 3 6 -2 3 -11 -6 -14 -12
-11 -38 17 -17 18 -30 39 -27 46 2 7 -6 16 -17 19 -17 4 -19 8 -10 23 16 25 3
52 -24 48 -18 -2 -23 -9 -21 -31 1 -20 -3 -27 -17 -27 -10 0 -22 -4 -25 -10
-3 -5 0 -10 7 -10 18 0 -12 -20 -30 -20 -9 0 -7 8 7 26 27 35 27 64 1 64 -25
0 -37 -25 -21 -44 9 -11 7 -15 -8 -19 -13 -3 -21 1 -24 15 -8 28 -32 16 -30
-15 2 -30 -23 -44 -30 -16 -3 10 -10 19 -16 19 -17 0 -26 -31 -12 -40 9 -5 8
-9 -4 -14 -26 -10 -35 -7 -29 9 4 11 0 15 -16 15 -17 0 -21 -5 -17 -19 3 -13
-1 -21 -14 -24 -14 -4 -19 -1 -17 11 2 11 -4 17 -17 17 -12 0 -19 -6 -18 -15
2 -10 -5 -16 -17 -16 -15 0 -18 5 -14 18 3 12 0 18 -9 18 -9 0 -17 -5 -19 -12
-3 -7 -16 -3 -37 13 -19 14 -27 25 -20 28 7 2 14 0 16 -5 4 -11 109 -10 145 1
66 20 131 105 109 143 -9 15 -10 15 -11 -4z m215 -135 c11 -17 -1 -21 -15 -4
-8 9 -8 15 -2 15 6 0 14 -5 17 -11z m-128 -25 c-3 -3 -12 -4 -19 -1 -8 3 -5 6
6 6 11 1 17 -2 13 -5z m-57 -18 c0 -2 -7 -7 -16 -10 -8 -3 -12 -2 -9 4 6 10
25 14 25 6z"/>
<path d="M1506 1677 c-10 -7 -17 -22 -14 -33 4 -23 38 -32 38 -10 0 10 -6 13
-17 9 -17 -6 -17 -6 0 11 18 18 47 16 47 -4 0 -6 -5 -8 -11 -4 -7 4 -10 1 -7
-7 3 -8 12 -15 21 -17 25 -5 22 44 -2 58 -26 13 -33 13 -55 -3z"/>
<path d="M1490 1590 c0 -13 7 -20 20 -20 24 0 27 25 4 34 -23 9 -24 8 -24 -14z"/>
<path d="M1545 1600 c-8 -14 3 -30 21 -30 8 0 14 9 14 20 0 21 -24 28 -35 10z"/>
<path d="M1474 1546 c-9 -24 0 -58 18 -70 22 -14 34 -1 18 19 -7 9 -11 17 -9
19 12 11 46 14 58 7 12 -8 13 -12 1 -25 -16 -21 -4 -34 18 -20 11 7 17 24 17
45 l0 34 -58 3 c-43 2 -59 -1 -63 -12z m34 -3 c-10 -2 -18 -9 -18 -15 0 -6 -3
-9 -6 -5 -10 10 6 27 24 26 15 -1 15 -2 0 -6z m79 -13 c3 -10 2 -11 -4 -4 -4
6 -15 14 -23 17 -11 5 -9 6 4 4 11 -1 21 -9 23 -17z"/>
<path d="M1525 1462 l-7 -34 -26 24 c-21 19 -24 20 -19 5 4 -10 7 -33 7 -51 0
-18 7 -41 15 -52 14 -18 15 -17 5 8 -5 16 -6 30 0 33 5 3 12 -15 16 -40 5 -40
19 -64 29 -54 1 2 5 24 8 49 3 25 4 37 1 28 -3 -10 -9 -18 -14 -18 -13 0 -22
38 -13 54 7 13 11 12 31 -3 20 -15 22 -21 12 -46 -9 -28 -9 -29 5 -11 8 11 15
34 15 52 0 18 3 41 6 51 6 15 3 14 -17 -5 l-24 -22 -11 32 -11 33 -8 -33z"/>
<path d="M2110 1410 c0 -12 -7 -35 -17 -53 -18 -36 -26 -124 -9 -107 6 6 11
26 13 45 1 20 9 42 17 51 18 17 21 69 6 79 -5 3 -10 -3 -10 -15z"/>
<path d="M1230 1401 c0 -14 -5 -19 -15 -15 -20 8 -20 -44 0 -70 16 -22 20 -10
5 14 -6 10 -3 20 11 33 21 19 25 42 9 52 -5 3 -10 -3 -10 -14z"/>
<path d="M1826 1408 c-5 -10 -13 -15 -18 -12 -24 15 -38 -56 -18 -86 8 -11 9
-7 5 15 -3 17 -2 24 1 17 3 -6 10 -9 15 -6 6 4 6 11 -1 19 -8 9 -7 14 4 18 23
9 30 -12 12 -32 -9 -10 -16 -27 -16 -38 0 -17 -6 -19 -50 -19 -27 1 -50 5 -50
10 0 4 16 6 35 4 19 -2 35 -1 35 3 0 13 -44 39 -66 39 -17 0 -21 -6 -22 -37
-2 -42 21 -74 52 -72 17 1 18 2 4 6 -10 2 -18 10 -18 18 0 20 26 25 47 10 17
-13 17 -16 3 -42 -41 -74 -175 -70 -215 7 -22 43 0 79 40 64 23 -9 18 -32 -7
-37 -17 -3 -14 -5 9 -6 25 -1 37 5 49 25 12 18 14 28 6 36 -8 8 -6 18 8 36 11
14 20 28 20 32 0 18 -97 -30 -122 -61 l-28 -33 -37 35 c-35 33 -123 76 -123
60 0 -3 7 -17 16 -29 9 -13 13 -30 10 -39 -14 -35 44 -82 75 -62 10 6 8 9 -8
9 -26 0 -31 25 -8 34 42 16 63 -23 37 -68 -22 -38 -55 -56 -104 -56 -51 0 -84
14 -104 46 -25 38 1 77 36 54 13 -9 12 -12 -4 -25 -20 -15 -20 -15 1 -15 31 0
54 32 51 73 -3 30 -7 37 -24 37 -12 0 -33 -9 -46 -20 -14 -10 -28 -16 -32 -12
-4 3 -4 -1 0 -11 4 -10 1 -17 -6 -17 -9 0 -10 11 -6 35 5 23 3 35 -4 35 -6 0
-8 -6 -4 -12 5 -8 0 -7 -11 2 -17 14 -18 13 -11 -10 17 -62 17 -62 -11 -40
-33 26 -69 26 -83 -1 -14 -26 -8 -43 24 -64 19 -12 29 -14 43 -6 17 10 17 10
1 11 -10 0 -18 7 -18 15 0 20 46 20 54 0 9 -25 -12 -64 -46 -85 -39 -24 -98
-26 -138 -5 -51 27 -66 85 -21 85 27 0 35 -17 14 -30 -16 -9 -15 -10 7 -8 41
5 53 45 32 107 l-17 52 -27 -28 c-33 -36 -61 -91 -52 -104 4 -7 -1 -7 -15 0
-11 7 -21 17 -21 24 0 7 -20 35 -44 62 -24 28 -46 60 -50 73 -9 28 -49 27 -54
-2 -5 -22 16 -38 41 -30 9 3 17 1 17 -4 0 -4 17 -28 38 -52 27 -33 31 -40 12
-27 -46 32 -40 17 14 -35 59 -57 80 -113 57 -150 -14 -22 -8 -22 65 -3 240 62
675 64 932 4 105 -24 104 -24 90 6 -19 42 4 97 65 150 39 35 46 45 28 40 l-25
-8 27 32 c15 18 27 37 27 42 0 5 11 7 24 3 26 -6 48 19 39 44 -7 18 -43 15
-50 -5 -4 -10 -27 -40 -51 -68 -25 -27 -49 -60 -55 -73 -11 -25 -41 -26 -43
-2 -2 34 -5 41 -36 76 l-32 36 -18 -52 c-21 -63 -9 -103 32 -108 22 -2 23 -1
7 8 -21 13 -13 30 14 30 45 0 30 -58 -21 -85 -81 -42 -201 15 -182 87 5 22 52
25 52 3 0 -8 -8 -15 -17 -16 -14 0 -13 -3 5 -11 20 -10 27 -8 49 15 23 23 25
29 15 52 -14 31 -49 33 -86 4 -30 -23 -35 -9 -10 31 l15 25 -7 -25 c-6 -24 -6
-24 10 -5 20 26 22 79 2 72 -10 -4 -16 2 -19 16 -3 19 -4 20 -11 5z m-325 -96
c5 -4 -12 -7 -35 -7 -29 0 -42 3 -39 11 4 12 62 9 74 -4z m147 -12 c5 -13 3
-13 -11 -1 -9 7 -28 11 -42 9 -13 -3 -22 -1 -19 4 9 14 67 5 72 -12z m377 -8
c-3 -3 -12 -7 -21 -8 -11 -2 -12 1 -5 10 6 7 7 17 3 22 -4 4 1 2 11 -5 9 -8
15 -16 12 -19z m-957 6 c-2 -6 -10 -14 -16 -16 -7 -2 -10 2 -6 12 7 18 28 22
22 4z m292 -10 c0 -17 -3 -19 -9 -9 -6 9 -19 12 -36 9 -14 -3 -23 -2 -18 2 4
5 19 10 33 13 14 2 26 5 28 6 1 0 2 -9 2 -21z m-140 -12 c0 -2 -13 -6 -30 -8
-16 -3 -30 -1 -30 4 0 4 14 8 30 8 17 0 30 -2 30 -4z m690 -13 c0 -12 -3 -14
-8 -7 -4 7 -18 14 -32 17 -21 4 -20 4 8 6 24 1 32 -3 32 -16z m-830 -2 c0 -5
-9 -7 -19 -4 -10 3 -30 -1 -42 -8 -22 -11 -23 -11 -10 4 14 18 71 24 71 8z
m973 2 c3 -5 -12 -8 -33 -8 -21 -1 -36 3 -34 7 6 10 61 11 67 1z m-503 -43 c0
-6 11 -22 25 -35 13 -14 23 -26 22 -26 -11 -7 -109 -5 -113 2 -3 5 -1 9 5 9 6
0 17 14 26 30 15 29 35 40 35 20z m-264 -35 c4 -8 10 -13 14 -10 4 3 13 -1 19
-9 9 -11 5 -15 -20 -20 -17 -3 -42 -6 -56 -6 l-24 0 23 30 c24 33 36 37 44 15z
m535 -7 c7 -13 17 -26 23 -30 6 -4 -13 -6 -42 -4 -29 2 -56 7 -60 11 -4 5 -1
5 6 1 7 -4 12 -1 12 9 0 9 4 14 9 11 5 -3 11 1 15 9 8 22 23 18 37 -7z m-764
-61 c-8 -24 -33 -18 -35 8 -2 23 0 24 19 15 11 -6 18 -17 16 -23z m993 8 c0
-26 -8 -28 -50 -15 -14 5 -18 8 -9 9 9 1 22 8 29 16 18 22 30 18 30 -10z"/>
<path d="M1256 1384 c-4 -9 0 -22 8 -28 7 -6 16 -18 19 -26 3 -8 6 -3 6 12 2
50 -20 77 -33 42z"/>
<path d="M1405 1114 c-110 -8 -244 -25 -322 -40 -73 -15 -80 -18 -67 -32 10
-9 13 -24 9 -39 -5 -20 -3 -24 12 -19 79 24 223 39 426 43 255 6 399 -5 565
-42 20 -5 22 -2 17 18 -4 15 -1 30 9 39 13 14 6 17 -67 31 -161 32 -443 51
-582 41z m97 -37 c-7 -27 -33 -33 -48 -12 -18 24 -9 35 25 32 22 -2 27 -6 23
-20z m116 5 c-4 -23 -41 -27 -54 -5 -10 16 -7 18 23 20 27 2 34 -2 31 -15z
m-252 -12 c0 -23 -28 -27 -45 -7 -13 17 -5 27 24 27 14 0 21 -6 21 -20z m62 3
c5 -17 -26 -29 -40 -15 -6 6 -7 15 -3 22 9 14 37 9 43 -7z m117 -1 c0 -18 -20
-15 -23 4 -3 10 1 15 10 12 7 -3 13 -10 13 -16z m143 1 c5 -17 -26 -29 -40
-15 -6 6 -7 15 -3 22 9 14 37 9 43 -7z m72 13 c0 -18 -15 -36 -31 -36 -10 0
-19 2 -19 4 0 2 -3 11 -6 20 -5 13 1 16 25 16 17 0 31 -2 31 -4z m-511 -19 c6
-8 8 -17 4 -20 -10 -11 -45 -8 -38 3 3 6 0 10 -7 10 -9 0 -9 3 2 10 20 13 26
12 39 -3z m46 -17 c-5 -8 -11 -8 -17 -2 -6 6 -7 16 -3 22 5 8 11 8 17 2 6 -6
7 -16 3 -22z m568 24 c7 -8 -17 -34 -32 -34 -6 0 -11 9 -11 20 0 19 28 28 43
14z m-668 -35 c-7 -10 -38 -12 -48 -2 -4 3 -2 12 4 19 13 16 54 0 44 -17z
m605 15 c0 -17 -22 -14 -28 4 -2 7 3 12 12 12 9 0 16 -7 16 -16z m119 -20 c-8
-10 -16 -11 -32 -2 -20 10 -20 11 -2 24 24 18 52 -1 34 -22z m-797 4 c-2 -10
-10 -18 -17 -18 -17 0 -27 28 -12 33 25 8 34 3 29 -15z m856 5 c-2 -10 -11
-19 -20 -21 -12 -2 -15 2 -11 17 7 25 36 28 31 4z m-908 -18 c0 -8 -4 -15 -9
-15 -13 0 -22 16 -14 24 11 11 23 6 23 -9z m958 3 c-6 -18 -28 -21 -28 -4 0 9
7 16 16 16 9 0 14 -5 12 -12z"/>
<path d="M1230 995 c-58 -7 -143 -20 -189 -29 -46 -9 -97 -16 -115 -17 -31 0
-31 0 -6 -11 18 -7 88 -6 240 3 264 16 491 16 760 -1 142 -8 213 -9 230 -2 25
11 25 11 -6 11 -17 1 -80 10 -140 21 -60 10 -156 24 -213 30 -137 13 -430 11
-561 -5z m135 -16 c-4 -5 -23 -9 -43 -8 -32 1 -34 2 -12 8 38 11 61 11 55 0z
m188 4 c-23 -2 -64 -2 -90 0 -26 2 -7 3 42 3 50 0 71 -1 48 -3z m207 -4 c14
-4 -15 -5 -64 -3 -49 1 -91 6 -94 9 -9 8 127 3 158 -6z"/>
<path d="M2130 634 c-36 -80 -73 -152 -84 -160 -19 -13 -15 -14 34 -13 43 0
50 2 33 9 -27 11 -28 16 -8 64 l15 36 66 0 c65 0 65 0 80 -35 19 -46 18 -54
-8 -65 -17 -6 -5 -9 47 -9 61 -1 67 1 46 12 -17 8 -41 53 -87 156 -34 79 -65
145 -67 147 -2 2 -32 -62 -67 -142z m62 -52 c-30 -2 -56 -1 -59 1 -2 3 8 34
23 71 l28 67 31 -68 31 -68 -54 -3z"/>
<path d="M453 758 l28 -10 -3 -131 c-3 -129 -3 -132 -28 -144 -22 -11 -18 -13
45 -13 63 0 67 2 45 13 -25 12 -25 14 -25 142 0 128 0 130 25 142 22 11 18 13
-45 12 -59 0 -66 -2 -42 -11z"/>
<path d="M600 761 l25 -7 0 -134 c0 -133 0 -135 -25 -147 -23 -12 -20 -13 35
-12 51 0 56 2 38 11 -22 10 -23 17 -23 119 0 59 -3 115 -7 125 -3 10 -2 15 3
11 5 -3 36 -64 69 -136 33 -72 63 -131 66 -131 3 0 34 62 67 138 l61 137 1
-127 0 -126 -27 -10 c-23 -9 -15 -10 47 -10 62 0 70 1 47 10 l-28 10 3 136 c3
136 3 136 28 143 19 5 12 7 -25 8 l-50 1 -55 -125 c-30 -68 -57 -125 -60 -124
-3 0 -30 55 -61 122 l-55 122 -50 2 c-34 1 -41 -1 -24 -6z"/>
<path d="M1030 761 c25 -7 25 -7 28 -143 l3 -136 -28 -10 c-23 -9 -15 -10 47
-10 62 0 70 1 48 10 -26 9 -28 14 -28 66 l0 57 43 -3 c80 -6 142 57 117 118
-20 47 -55 60 -162 59 -54 -1 -82 -4 -68 -8z m164 -22 c19 -15 26 -30 26 -55
0 -47 -29 -74 -80 -74 l-40 0 0 75 0 75 34 0 c19 0 45 -9 60 -21z"/>
<path d="M1295 761 l30 -6 3 -137 3 -136 -28 -10 c-22 -8 1 -11 98 -11 l126
-1 10 45 c10 44 0 64 -12 25 -12 -39 -34 -50 -98 -50 l-62 0 0 65 0 65 38 0
c33 0 40 -4 52 -32 14 -33 14 -32 14 37 0 68 0 69 -15 43 -12 -23 -22 -28 -52
-28 l-37 0 0 65 0 65 51 0 c56 0 74 -10 98 -55 16 -32 20 -19 10 34 l-6 31
-127 -1 c-69 -1 -112 -4 -96 -8z"/>
<path d="M1590 761 c25 -7 25 -7 28 -143 l3 -136 -28 -10 c-23 -9 -15 -10 47
-10 62 0 70 1 48 10 -26 9 -28 13 -28 69 0 52 2 59 20 59 13 0 38 -24 72 -70
50 -67 54 -70 93 -70 40 1 40 1 13 13 -15 7 -47 39 -71 71 l-45 60 32 15 c40
20 60 60 47 95 -17 42 -59 56 -163 55 -54 -1 -82 -4 -68 -8z m153 -12 c30 -16
37 -28 37 -66 0 -40 -30 -63 -82 -63 l-38 0 0 70 0 70 31 0 c17 0 40 -5 52
-11z"/>
<path d="M1897 763 c39 -8 44 -25 41 -154 -3 -120 -4 -124 -28 -136 -22 -11
-18 -13 45 -13 63 0 67 2 45 13 -24 12 -25 16 -28 127 -3 136 1 157 31 163 12
2 -12 4 -53 4 -41 0 -65 -2 -53 -4z"/>
<path d="M2387 763 c39 -8 44 -25 41 -154 -3 -120 -4 -124 -28 -136 -21 -11
-8 -13 98 -13 67 0 122 3 122 8 1 4 5 26 9 50 10 53 1 54 -21 2 l-17 -40 -65
0 -66 0 0 128 c0 70 4 132 8 138 4 7 18 14 32 17 14 2 -11 4 -55 4 -44 0 -70
-2 -58 -4z"/>
<path d="M1086 304 c-19 -18 -19 -20 -6 -44 5 -10 25 -23 44 -30 38 -12 52
-35 35 -56 -18 -22 -46 -17 -68 12 l-21 27 1 -34 c0 -19 3 -29 5 -23 4 9 13 9
35 1 39 -15 63 0 67 42 3 29 0 33 -43 51 -34 14 -46 25 -43 37 5 27 43 28 67
2 l21 -23 0 25 c0 21 -5 24 -39 27 -25 1 -45 -3 -55 -14z"/>
<path d="M1233 309 c13 -8 17 -23 17 -69 0 -65 15 -90 56 -90 43 0 64 33 64
99 0 38 4 61 13 64 6 3 -4 6 -23 6 -22 0 -30 -2 -22 -8 21 -13 12 -131 -10
-145 -13 -8 -23 -8 -35 0 -23 14 -32 132 -11 145 8 6 -2 9 -27 9 -32 -1 -36
-3 -22 -11z"/>
<path d="M1433 309 c13 -8 17 -24 17 -72 0 -36 -5 -68 -12 -75 -9 -9 -4 -12
22 -12 26 0 31 3 22 12 -7 7 -12 39 -12 73 0 34 5 66 12 73 9 9 3 12 -27 12
-32 -1 -37 -3 -22 -11z"/>
<path d="M1530 311 c0 -5 -3 -16 -6 -25 -3 -9 -2 -16 4 -16 5 0 12 9 15 20 3
11 12 20 21 20 13 0 16 -13 16 -74 0 -50 -4 -76 -12 -79 -7 -3 5 -5 27 -5 22
0 34 2 28 5 -20 7 -18 153 2 153 8 0 19 -9 25 -21 14 -25 24 -18 15 10 -6 18
-14 21 -71 21 -35 0 -64 -4 -64 -9z"/>
<path d="M1708 313 c8 -3 12 -29 12 -78 0 -49 -4 -75 -12 -78 -7 -3 17 -6 53
-6 66 -1 67 -1 71 29 l4 29 -22 -24 c-13 -14 -27 -25 -33 -25 -27 0 -41 14
-41 41 0 22 5 29 20 29 10 0 24 -8 29 -17 8 -14 10 -10 10 22 0 32 -2 36 -10
23 -5 -10 -19 -18 -30 -18 -17 0 -20 6 -17 33 4 42 42 51 69 16 l17 -23 -5 27
c-5 26 -8 27 -67 26 -33 0 -55 -3 -48 -6z"/>
<path d="M1896 299 c-20 -30 -10 -48 40 -70 45 -19 54 -35 32 -57 -20 -20 -45
-14 -67 15 l-20 28 -1 -35 c0 -20 4 -30 8 -23 5 8 13 9 22 3 26 -17 59 -11 75
14 22 32 9 55 -41 77 -45 19 -57 42 -28 53 25 10 32 7 54 -16 l20 -22 0 25 c0
21 -5 24 -39 27 -31 2 -43 -2 -55 -19z"/>
</g>
</svg>
